<svg width="1024" height="1024" viewBox="0 0 1024 1024" fill="none" xmlns="http://www.w3.org/2000/svg">
  <defs>
    <!-- macOS squircle mask -->
    <clipPath id="squircle">
      <rect width="1024" height="1024" rx="224" ry="224"/>
    </clipPath>
  </defs>

  <g clip-path="url(#squircle)">
    <!-- White background -->
    <rect width="1024" height="1024" fill="#FFFFFF"/>

    <!--
      Source: "team.cowork Logo 시안 2.svg" (6436×5836)
      Content bbox: x 1386.57–5232.57 (w=3846), y 1178.14–4016.86 (h=2838.72)
      Target fit: 700×516 centered in 1024×1024
        scale = 700/3846 = 0.1820
        tx: (1386.57 + tx) * 0.1820 = 162  →  tx = -496
        ty: (1178.14 + ty) * 0.1820 = 254  →  ty =  217
    -->
    <g transform="scale(0.1820) translate(-496, 217)"
       stroke="#EF4444" stroke-width="91.5714"
       stroke-linecap="round" stroke-linejoin="round">
      <path d="M3584.29 2918L4133.71 2643.29H5232.57L4683.14 2918H3584.29Z"/>
      <path d="M5232.57 2643.29V3742.14L4683.14 4016.86V2918L5232.57 2643.29Z"/>
      <path d="M3584.29 2918V4016.86H4683.14V2918H3584.29Z"/>
      <path d="M2485.43 2185.43L3034.86 1910.71H4133.71L3584.29 2185.43H2485.43Z"/>
      <path d="M4133.71 1910.71V3009.57L3584.29 3284.29V2185.43L4133.71 1910.71Z"/>
      <path d="M2485.43 2185.43V3284.29H3584.29V2185.43H2485.43Z"/>
      <path d="M1386.57 1452.86L1936 1178.14H3034.86L2485.43 1452.86H1386.57Z"/>
      <path d="M3034.86 1178.14V2277L2485.43 2551.71V1452.86L3034.86 1178.14Z"/>
      <path d="M1386.57 1452.86V2551.71H2485.43V1452.86H1386.57Z"/>
    </g>
  </g>
</svg>
